<?xml version="1.0" encoding="UTF-8" standalone="no"?>
<!-- Created with Inkscape (http://www.inkscape.org/) -->

<svg
   width="59.074043mm"
   height="23.037691mm"
   viewBox="0 0 59.074043 23.037691"
   version="1.1"
   id="svg1"
   xml:space="preserve"
   xmlns="http://www.w3.org/2000/svg"
   xmlns:svg="http://www.w3.org/2000/svg"><defs
     id="defs1" /><g
     id="layer1"
     transform="translate(-38.909489,-132.00741)"><text
       xml:space="preserve"
       style="font-style:normal;font-variant:normal;font-weight:600;font-stretch:normal;font-size:13.9222px;font-family:Quicksand;-inkscape-font-specification:'Quicksand Semi-Bold';text-align:start;writing-mode:lr-tb;direction:ltr;text-anchor:start;fill:#222222;fill-opacity:1;stroke:none;stroke-width:9.79157;stroke-dasharray:none;stroke-opacity:1;paint-order:normal"
       x="54.086807"
       y="149.82019"
       id="text8"><tspan
         id="tspan8"
         style="font-style:normal;font-variant:normal;font-weight:600;font-stretch:normal;font-family:Quicksand;-inkscape-font-specification:'Quicksand Semi-Bold';fill:#222222;fill-opacity:1;stroke-width:9.79157"
         x="54.086807"
         y="149.82019">nyFast</tspan></text><g
       id="g19"
       transform="matrix(1.5884188,0,0,1.5884188,-63.441645,-19.006287)"><path
         id="path18"
         style="font-size:17.0562px;text-align:start;writing-mode:lr-tb;direction:ltr;text-anchor:start;fill:#312cc6;fill-opacity:1;stroke:none;stroke-width:1.42121;stroke-dasharray:none;stroke-opacity:1"
         d="m 73.759931,88.427496 c -1.177055,0 -2.076673,0.302763 -2.698514,0.907947 -0.06855,0.0667 -0.133531,0.136338 -0.194457,0.209082 1.060657,0.03975 1.87731,0.338139 2.449608,0.89497 0.06705,0.06524 0.130257,0.133188 0.190013,0.204276 0.07977,-0.01176 0.164504,-0.0173 0.25335,-0.0173 0.460828,0 0.79909,0.157929 1.015624,0.474401 0.216533,0.310921 0.325021,0.760656 0.325021,1.349184 v 4.339304 c 0,0.588527 -0.108488,1.040881 -0.325021,1.357354 -0.132565,0.190349 -0.310908,0.32224 -0.535036,0.396055 -0.0097,0.936437 -0.253011,1.691361 -0.730605,2.264331 0.08185,0.003 0.165256,0.005 0.250017,0.005 1.177056,0 2.073336,-0.30014 2.689624,-0.89977 0.621841,-0.605185 0.932841,-1.451531 0.932841,-2.539753 v -5.505359 c 0,-1.093773 -0.308218,-1.94012 -0.924507,-2.539752 -0.616288,-0.599632 -1.51535,-0.899776 -2.697958,-0.899776 z m -3.141877,3.311194 c -0.178709,0 -0.338617,0.02354 -0.480587,0.07114 -1.91e-4,0.01898 -5.56e-4,0.03807 -5.56e-4,0.0572 v 5.505359 c 0,0.965627 0.247518,1.743718 0.742828,2.334515 0.329664,-0.04972 0.581236,-0.199184 0.754494,-0.447965 0.216534,-0.316473 0.325022,-0.768827 0.325022,-1.357354 v -4.338824 c 0,-0.588527 -0.108488,-1.038263 -0.325022,-1.349183 C 71.4177,91.8971 71.078883,91.73869 70.618054,91.73869 Z"
         transform="scale(0.9301136,1.0751375)" /><path
         id="path19"
         style="font-size:17.0562px;text-align:start;writing-mode:lr-tb;direction:ltr;text-anchor:start;fill:#000000;stroke:none;stroke-width:1.42121;stroke-dasharray:none;stroke-opacity:1"
         d="m 71.780354,89.53347 c -0.213212,0 -0.417269,0.0099 -0.612263,0.0298 0.915497,0.08105 1.631495,0.373215 2.148477,0.876224 0.616288,0.599632 0.924506,1.44646 0.924506,2.540233 v 5.504879 c 0,1.088221 -0.310999,1.935044 -0.93284,2.540234 -0.504139,0.49051 -1.195756,0.78023 -2.075139,0.86949 0.175115,0.0156 0.357574,0.0231 0.547259,0.0231 1.177055,0 2.073336,-0.29966 2.689624,-0.89929 0.621841,-0.60518 0.93284,-1.452012 0.93284,-2.540233 v -5.504879 c 0,-1.093773 -0.308217,-1.94012 -0.924506,-2.539752 C 73.862024,89.833644 72.962962,89.5335 71.780354,89.5335 Z m -1.1623,2.20522 c -0.460828,0 -0.79909,0.158409 -1.015623,0.474882 -0.216534,0.31092 -0.325022,0.760655 -0.325022,1.349183 v 4.338823 c 0,0.588528 0.108488,1.040882 0.325022,1.357354 0.216533,0.310921 0.554795,0.466711 1.015623,0.466711 0.22531,0 0.42146,-0.03719 0.588373,-0.111511 -0.181198,-0.07753 -0.328488,-0.198094 -0.442252,-0.361448 -0.216534,-0.316473 -0.325022,-0.768827 -0.325022,-1.357354 v -4.339304 c 0,-0.588528 0.108488,-1.038263 0.325022,-1.349183 0.110692,-0.161782 0.253273,-0.28189 0.427806,-0.360968 -0.163714,-0.07133 -0.355155,-0.107185 -0.573927,-0.107185 z"
         transform="scale(0.9301136,1.0751375)" /></g></g></svg>
